<?xml version="1.0" encoding="utf-8"?>
<!-- Generator: Adobe Illustrator 17.0.0, SVG Export Plug-In . SVG Version: 6.00 Build 0)  -->
<!DOCTYPE svg PUBLIC "-//W3C//DTD SVG 1.1//EN" "http://www.w3.org/Graphics/SVG/1.1/DTD/svg11.dtd">
<svg version="1.1" id="Calque_1" xmlns="http://www.w3.org/2000/svg" xmlns:xlink="http://www.w3.org/1999/xlink" x="0px" y="0px"
	 width="595.28px" height="570.445px" viewBox="0 0 595.28 570.445" enable-background="new 0 0 595.28 570.445"
	 xml:space="preserve">
<title>Clock_outlined_11pm</title>
<rect x="-0.36" y="0.5" fill="#272727" width="595.64" height="569.945"/>
<g>
	<path fill="#C4C4C4" d="M543.082,276.521h-33.984c-4.907,0-8.885,3.978-8.885,8.885s3.978,8.885,8.885,8.885h33.984
		c4.907,0,8.885-3.978,8.885-8.885S547.989,276.521,543.082,276.521z"/>
	<path fill="#C4C4C4" d="M182.627,68.395c-2.632-4.141-8.123-5.364-12.264-2.731c-3.896,2.477-5.246,7.525-3.106,11.616
		l17.014,29.453c2.632,4.141,8.123,5.364,12.264,2.731c3.896-2.477,5.246-7.525,3.106-11.616L182.627,68.395z"/>
	<path fill="#C4C4C4" d="M306.391,39.255c-0.189-4.903-4.318-8.725-9.221-8.535c-4.613,0.178-8.322,3.86-8.533,8.472l-0.13,34.014
		c0.189,4.903,4.318,8.725,9.221,8.535c4.614-0.178,8.322-3.86,8.533-8.472L306.391,39.255z"/>
	<path fill="#C4C4C4" d="M118.967,171.991l-29.409-17.014c-4.348-2.274-9.716-0.594-11.991,3.754
		c-2.14,4.091-0.79,9.139,3.106,11.616l29.453,17.014c4.085,2.719,9.6,1.612,12.319-2.472c2.719-4.085,1.612-9.6-2.472-12.319
		C119.651,172.355,119.315,172.162,118.967,171.991z"/>
	<path fill="#C4C4C4" d="M95.067,285.405c0-4.907-3.978-8.885-8.885-8.885H52.198c-4.907,0-8.885,3.978-8.885,8.885
		s3.978,8.885,8.885,8.885h33.984C91.089,294.29,95.067,290.312,95.067,285.405z"/>
	<path fill="#C4C4C4" d="M110.082,383.449l-29.453,17.014c-4.141,2.632-5.364,8.123-2.731,12.264
		c2.477,3.896,7.525,5.246,11.616,3.106l29.453-17.014c4.141-2.632,5.364-8.123,2.732-12.264
		C119.222,382.659,114.173,381.309,110.082,383.449z"/>
	<path fill="#C4C4C4" d="M196.354,460.835c-4.245-2.449-9.671-0.998-12.128,3.243l-17.014,29.453
		c-2.274,4.348-0.594,9.716,3.754,11.991c4.091,2.14,9.139,0.79,11.616-3.106l17.014-29.409c2.47-4.24,1.036-9.679-3.204-12.15
		C196.38,460.85,196.367,460.843,196.354,460.835z"/>
	<path fill="#C4C4C4" d="M297.64,487.978c-4.907,0-8.885,3.978-8.885,8.885v33.984c0,4.907,3.978,8.885,8.885,8.885
		s8.885-3.978,8.885-8.885v-33.984C306.525,491.956,302.547,487.978,297.64,487.978z"/>
	<path fill="#C4C4C4" d="M411.054,464.078c-2.274-4.348-7.643-6.029-11.991-3.754s-6.029,7.643-3.754,11.991
		c0.116,0.221,0.241,0.438,0.375,0.648l17.014,29.453c2.632,4.141,8.123,5.364,12.264,2.731c3.896-2.477,5.246-7.525,3.106-11.616
		L411.054,464.078z"/>
	<path fill="#C4C4C4" d="M514.651,400.419l-29.409-17.014c-4.141-2.633-9.632-1.41-12.264,2.731
		c-2.632,4.141-1.41,9.632,2.731,12.264c0.211,0.134,0.427,0.259,0.648,0.375l29.453,17.014c4.085,2.719,9.6,1.612,12.319-2.473
		c2.719-4.085,1.612-9.6-2.473-12.319C515.334,400.783,514.998,400.59,514.651,400.419z"/>
	<path fill="#C4C4C4" d="M480.8,188.561c1.56-0.003,3.093-0.416,4.442-1.199l29.453-17.014c4.141-2.632,5.364-8.123,2.732-12.264
		c-2.477-3.896-7.525-5.246-11.616-3.106l-29.453,17.014c-4.245,2.462-5.689,7.899-3.227,12.143
		C474.717,186.87,477.638,188.556,480.8,188.561z"/>
	<path fill="#C4C4C4" d="M424.826,65.152c-4.245-2.449-9.671-0.998-12.128,3.243l-17.014,29.453
		c-2.274,4.348-0.594,9.716,3.754,11.991c4.091,2.14,9.139,0.79,11.616-3.106l17.014-29.409c2.47-4.24,1.036-9.679-3.204-12.15
		C424.852,65.167,424.839,65.159,424.826,65.152z"/>
</g>
</svg>
